<svg id="svg" version="1.1" xmlns="http://www.w3.org/2000/svg" xmlns:xlink="http://www.w3.org/1999/xlink" width="400" height="400" viewBox="0, 0, 400,400"><g id="svgg"><path id="path0" d="M47.021 104.053 L 42.969 104.109 42.969 110.844 L 42.969 117.578 110.256 117.578 L 177.543 117.578 176.680 115.869 C 173.027 108.632,167.193 104.784,158.852 104.106 C 156.655 103.928,59.218 103.881,47.021 104.053 M241.992 104.113 C 233.630 104.791,226.963 109.490,223.930 116.846 L 223.628 117.578 290.915 117.578 L 358.203 117.578 358.203 110.742 L 358.203 103.906 301.025 103.935 C 269.578 103.950,243.013 104.031,241.992 104.113 M42.969 129.004 L 42.969 135.742 111.133 135.742 L 179.297 135.742 179.297 130.477 C 179.297 127.581,179.198 124.548,179.078 123.738 L 178.859 122.266 110.914 122.266 L 42.969 122.266 42.969 129.004 M222.094 123.738 C 221.974 124.548,221.875 127.581,221.875 130.477 L 221.875 135.742 290.039 135.742 L 358.203 135.742 358.203 129.004 L 358.203 122.266 290.258 122.266 L 222.313 122.266 222.094 123.738 M42.969 147.168 L 42.969 153.906 59.961 153.906 L 76.953 153.906 76.953 147.168 L 76.953 140.430 59.961 140.430 L 42.969 140.430 42.969 147.168 M145.313 147.168 L 145.313 153.906 162.305 153.906 L 179.297 153.906 179.297 147.168 L 179.297 140.430 162.305 140.430 L 145.313 140.430 145.313 147.168 M221.875 147.168 L 221.875 153.906 238.867 153.906 L 255.859 153.906 255.859 147.168 L 255.859 140.430 238.867 140.430 L 221.875 140.430 221.875 147.168 M42.969 165.332 L 42.969 172.070 59.961 172.070 L 76.953 172.070 76.953 165.332 L 76.953 158.594 59.961 158.594 L 42.969 158.594 42.969 165.332 M145.313 165.332 L 145.313 172.070 162.305 172.070 L 179.297 172.070 179.297 165.332 L 179.297 158.594 162.305 158.594 L 145.313 158.594 145.313 165.332 M221.934 164.792 C 221.987 168.204,222.093 171.238,222.171 171.533 L 222.311 172.070 289.281 172.070 C 326.114 172.070,356.250 172.024,356.250 171.967 C 356.250 171.910,355.976 171.317,355.640 170.649 C 352.468 164.327,347.722 160.610,340.815 159.040 C 339.463 158.733,335.038 158.704,280.597 158.648 L 221.838 158.588 221.934 164.792 M42.969 183.594 L 42.969 190.430 59.961 190.430 L 76.953 190.430 76.953 183.594 L 76.953 176.758 59.961 176.758 L 42.969 176.758 42.969 183.594 M145.313 183.594 L 145.313 190.430 162.305 190.430 L 179.297 190.430 179.297 183.594 L 179.297 176.758 162.305 176.758 L 145.313 176.758 145.313 183.594 M223.933 177.490 C 227.039 184.943,233.439 189.488,241.879 190.235 C 243.232 190.355,265.423 190.427,301.123 190.428 L 358.203 190.430 358.203 185.325 C 358.203 182.511,358.100 179.443,357.973 178.489 L 357.742 176.758 290.685 176.758 L 223.628 176.758 223.933 177.490 M47.119 195.068 L 42.969 195.125 42.969 201.859 L 42.969 208.594 59.961 208.594 L 76.953 208.594 76.953 201.758 L 76.953 194.922 64.111 194.967 C 57.048 194.991,49.402 195.037,47.119 195.068 M149.463 195.068 L 145.313 195.125 145.313 201.859 L 145.313 208.594 162.305 208.594 L 179.297 208.594 179.297 201.758 L 179.297 194.922 166.455 194.967 C 159.392 194.991,151.746 195.037,149.463 195.068 M328.369 195.068 L 324.219 195.125 324.219 201.859 L 324.219 208.594 341.211 208.594 L 358.203 208.594 358.203 201.758 L 358.203 194.922 345.361 194.967 C 338.298 194.991,330.652 195.037,328.369 195.068 M42.969 220.020 L 42.969 226.758 59.961 226.758 L 76.953 226.758 76.953 220.020 L 76.953 213.281 59.961 213.281 L 42.969 213.281 42.969 220.020 M145.313 220.020 L 145.313 226.758 162.305 226.758 L 179.297 226.758 179.297 220.020 L 179.297 213.281 162.305 213.281 L 145.313 213.281 145.313 220.020 M324.219 220.020 L 324.219 226.758 341.211 226.758 L 358.203 226.758 358.203 220.020 L 358.203 213.281 341.211 213.281 L 324.219 213.281 324.219 220.020 M42.969 238.184 L 42.969 244.922 110.914 244.922 L 178.859 244.922 179.078 243.449 C 179.198 242.639,179.297 239.607,179.297 236.711 L 179.297 231.445 111.133 231.445 L 42.969 231.445 42.969 238.184 M221.875 238.184 L 221.875 244.922 289.809 244.922 L 357.742 244.922 357.973 243.191 C 358.099 242.239,358.203 239.206,358.203 236.452 L 358.203 231.445 290.039 231.445 L 221.875 231.445 221.875 238.184 M42.969 256.348 L 42.969 263.086 101.342 263.086 C 165.612 263.086,161.126 263.170,164.938 261.893 C 170.365 260.075,174.456 256.215,177.180 250.342 L 177.520 249.609 110.244 249.609 L 42.969 249.609 42.969 256.348 M221.875 256.348 L 221.875 263.086 280.127 263.085 C 343.450 263.084,339.973 263.143,343.415 262.019 C 348.742 260.280,352.588 256.928,355.467 251.514 L 356.480 249.609 289.178 249.609 L 221.875 249.609 221.875 256.348 " stroke="none" fill="#6c94b6" fill-rule="evenodd"></path><path id="path1" d="M0.000 200.000 L 0.000 400.000 200.000 400.000 L 400.000 400.000 400.000 200.000 L 400.000 0.000 200.000 0.000 L 0.000 0.000 0.000 200.000 M167.759 100.594 C 174.170 101.252,179.095 103.934,182.694 108.730 C 183.739 110.122,185.742 113.546,185.742 113.940 C 185.742 114.007,183.545 114.063,180.859 114.063 C 178.174 114.063,175.977 114.104,175.977 114.155 C 175.977 114.206,176.328 114.945,176.758 115.797 C 177.188 116.649,177.539 117.399,177.539 117.462 C 177.539 117.526,147.217 117.578,110.156 117.578 L 42.773 117.578 42.773 110.742 L 42.773 103.906 46.973 103.906 L 51.172 103.906 51.172 102.148 L 51.172 100.391 108.475 100.391 C 146.753 100.391,166.436 100.458,167.759 100.594 M366.406 107.227 L 366.406 114.063 362.402 114.063 L 358.398 114.063 358.398 115.820 L 358.398 117.578 291.016 117.578 C 245.130 117.578,223.633 117.514,223.633 117.378 C 223.633 116.492,226.399 112.130,228.146 110.263 C 230.665 107.570,236.216 104.492,238.553 104.492 C 238.692 104.492,239.522 104.061,240.400 103.534 C 242.973 101.987,246.165 100.956,249.436 100.614 C 250.337 100.520,277.024 100.431,308.740 100.417 L 366.406 100.391 366.406 107.227 M187.116 118.701 C 187.119 118.782,187.248 119.771,187.402 120.898 C 187.579 122.187,187.685 124.672,187.689 127.588 L 187.695 132.227 183.594 132.227 L 179.492 132.227 179.492 134.082 L 179.492 135.938 111.182 135.889 L 42.871 135.840 42.820 128.955 L 42.768 122.070 46.970 122.070 L 51.172 122.070 51.172 120.313 L 51.172 118.555 119.141 118.555 C 156.523 118.555,187.112 118.621,187.116 118.701 M366.406 125.391 L 366.406 132.227 362.410 132.227 L 358.413 132.227 358.357 134.033 L 358.301 135.840 289.990 135.889 L 221.680 135.938 221.678 130.908 C 221.677 128.142,221.782 125.022,221.912 123.975 L 222.147 122.070 226.090 122.070 L 230.033 122.070 230.168 120.752 C 230.242 120.027,230.350 119.236,230.407 118.994 L 230.511 118.555 298.459 118.555 L 366.406 118.555 366.406 125.391 M85.156 143.750 L 85.156 150.586 81.160 150.586 L 77.164 150.586 77.107 152.295 L 77.051 154.004 59.910 154.054 L 42.768 154.104 42.820 147.218 L 42.871 140.332 47.021 140.279 L 51.172 140.227 51.172 138.570 L 51.172 136.914 68.164 136.914 L 85.156 136.914 85.156 143.750 M187.649 143.701 L 187.598 150.488 183.545 150.541 L 179.492 150.594 179.492 152.348 L 179.492 154.102 162.402 154.102 L 145.313 154.102 145.313 147.168 L 145.313 140.234 149.414 140.234 L 153.516 140.234 153.516 138.574 L 153.516 136.914 170.608 136.914 L 187.700 136.914 187.649 143.701 M264.063 143.750 L 264.063 150.586 259.961 150.586 L 255.859 150.586 255.859 152.344 L 255.859 154.102 238.770 154.102 L 221.680 154.102 221.680 147.168 L 221.680 140.234 225.781 140.234 L 229.883 140.234 229.883 138.574 L 229.883 136.914 246.973 136.914 L 264.063 136.914 264.063 143.750 M85.156 161.914 L 85.156 168.750 81.152 168.750 L 77.148 168.750 77.148 170.508 L 77.148 172.266 59.961 172.266 L 42.773 172.266 42.773 165.434 L 42.773 158.602 46.924 158.549 L 51.074 158.496 51.131 156.787 L 51.187 155.078 68.172 155.078 L 85.156 155.078 85.156 161.914 M187.649 161.865 L 187.598 168.652 183.545 168.705 L 179.492 168.758 179.492 170.512 L 179.492 172.266 162.402 172.266 L 145.313 172.266 145.313 165.430 L 145.313 158.594 149.414 158.594 L 153.516 158.594 153.516 156.836 L 153.516 155.078 170.608 155.078 L 187.700 155.078 187.649 161.865 M347.852 155.366 C 355.162 156.489,360.270 160.187,363.776 166.895 L 364.695 168.652 359.720 168.704 L 354.745 168.756 355.589 170.365 C 356.054 171.249,356.436 172.039,356.440 172.119 C 356.443 172.200,326.228 172.266,289.296 172.266 L 222.147 172.266 221.912 170.361 C 221.782 169.314,221.677 166.238,221.678 163.525 L 221.680 158.594 225.781 158.594 L 229.883 158.594 229.883 156.836 L 229.883 155.078 287.939 155.079 C 337.849 155.080,346.256 155.120,347.852 155.366 M85.156 180.078 L 85.156 186.914 81.152 186.914 L 77.148 186.914 77.148 188.672 L 77.148 190.430 59.961 190.430 L 42.773 190.430 42.773 183.594 L 42.773 176.758 46.973 176.758 L 51.172 176.758 51.172 175.000 L 51.172 173.242 68.164 173.242 L 85.156 173.242 85.156 180.078 M187.695 180.078 L 187.695 186.914 183.594 186.914 L 179.492 186.914 179.492 188.672 L 179.492 190.430 162.402 190.430 L 145.313 190.430 145.313 183.594 L 145.313 176.758 149.414 176.758 L 153.516 176.758 153.516 175.000 L 153.516 173.242 170.605 173.242 L 187.695 173.242 187.695 180.078 M366.182 174.854 C 366.306 175.743,366.407 178.805,366.406 181.689 L 366.406 186.914 362.402 186.914 L 358.398 186.914 358.398 188.672 L 358.398 190.430 300.209 190.430 C 260.017 190.430,241.557 190.365,240.521 190.221 C 234.567 189.393,229.957 186.746,226.570 182.210 C 225.526 180.812,223.633 177.435,223.633 176.971 C 223.633 176.823,225.119 176.758,228.516 176.758 C 231.201 176.758,233.398 176.734,233.398 176.705 C 233.398 176.676,233.047 175.953,232.617 175.098 C 232.188 174.242,231.836 173.475,231.836 173.392 C 231.836 173.310,262.013 173.242,298.896 173.242 L 365.956 173.242 366.182 174.854 M85.156 198.242 L 85.156 205.078 81.152 205.078 L 77.148 205.078 77.148 206.836 L 77.148 208.594 59.961 208.594 L 42.773 208.594 42.773 201.758 L 42.773 194.922 46.973 194.922 L 51.172 194.922 51.172 193.164 L 51.172 191.406 68.164 191.406 L 85.156 191.406 85.156 198.242 M187.649 198.291 L 187.700 205.078 183.596 205.078 L 179.492 205.078 179.492 206.836 L 179.492 208.594 162.402 208.594 L 145.313 208.594 145.313 201.758 L 145.313 194.922 149.414 194.922 L 153.516 194.922 153.516 193.163 L 153.516 191.404 170.557 191.454 L 187.598 191.504 187.649 198.291 M366.406 198.242 L 366.406 205.078 362.402 205.078 L 358.398 205.078 358.398 206.836 L 358.398 208.594 341.211 208.594 L 324.023 208.594 324.023 201.758 L 324.023 194.922 328.223 194.922 L 332.422 194.922 332.422 193.164 L 332.422 191.406 349.414 191.406 L 366.406 191.406 366.406 198.242 M85.156 216.406 L 85.156 223.242 81.160 223.242 L 77.163 223.242 77.107 225.049 L 77.051 226.855 59.961 226.855 L 42.871 226.855 42.820 219.971 L 42.768 213.086 46.970 213.086 L 51.172 213.086 51.172 211.328 L 51.172 209.570 68.164 209.570 L 85.156 209.570 85.156 216.406 M187.649 216.455 L 187.700 223.242 183.596 223.242 L 179.492 223.242 179.492 225.098 L 179.492 226.953 162.402 226.953 L 145.313 226.953 145.313 220.020 L 145.313 213.086 149.414 213.086 L 153.516 213.086 153.516 211.327 L 153.516 209.568 170.557 209.618 L 187.598 209.668 187.649 216.455 M366.406 216.406 L 366.406 223.242 362.410 223.242 L 358.413 223.242 358.357 225.049 L 358.301 226.855 341.211 226.855 L 324.121 226.855 324.070 219.971 L 324.018 213.086 328.220 213.086 L 332.422 213.086 332.422 211.328 L 332.422 209.570 349.414 209.570 L 366.406 209.570 366.406 216.406 M187.689 232.568 C 187.685 235.484,187.579 237.969,187.402 239.258 C 187.248 240.386,187.119 241.375,187.116 241.455 C 187.112 241.536,185.397 241.602,183.305 241.602 C 178.946 241.602,179.429 241.351,179.151 243.750 L 179.003 245.020 110.886 245.069 L 42.768 245.118 42.820 238.233 L 42.871 231.348 47.021 231.295 L 51.172 231.242 51.172 229.586 L 51.172 227.930 119.434 227.930 L 187.695 227.930 187.689 232.568 M366.406 233.154 C 366.407 236.039,366.306 239.101,366.182 239.990 L 365.956 241.602 362.102 241.602 L 358.248 241.602 358.118 242.725 C 358.046 243.342,357.938 244.133,357.878 244.482 L 357.769 245.117 289.724 245.117 L 221.680 245.117 221.680 238.184 L 221.680 231.250 225.781 231.250 L 229.883 231.250 229.883 229.590 L 229.883 227.930 298.145 227.930 L 366.406 227.930 366.406 233.154 M185.739 246.240 C 185.737 246.321,185.335 247.133,184.845 248.046 C 181.820 253.681,177.483 257.303,171.969 258.797 C 171.094 259.035,169.955 259.519,169.374 259.901 C 167.949 260.838,165.784 261.814,164.049 262.301 C 160.407 263.324,163.343 263.279,100.830 263.280 L 42.773 263.281 42.773 256.449 L 42.773 249.617 46.924 249.564 L 51.074 249.512 51.131 247.803 L 51.187 246.094 118.465 246.094 C 155.467 246.094,185.741 246.160,185.739 246.240 M363.790 247.803 C 360.939 253.450,356.464 257.258,350.879 258.792 C 349.952 259.046,348.758 259.568,347.944 260.072 C 345.412 261.643,342.402 262.661,339.068 263.076 C 337.943 263.215,318.879 263.281,279.546 263.281 L 221.680 263.281 221.680 256.445 L 221.680 249.609 225.781 249.609 L 229.883 249.609 229.883 247.852 L 229.883 246.094 297.268 246.094 L 364.652 246.094 363.790 247.803 " stroke="none" fill="#fbfbfb" fill-rule="evenodd"></path><path id="path2" d="M51.172 102.148 L 51.172 103.906 104.598 103.906 C 159.592 103.906,160.159 103.914,163.190 104.689 C 167.956 105.908,172.392 108.976,174.979 112.842 L 175.796 114.063 180.769 114.063 C 183.504 114.063,185.742 114.007,185.742 113.940 C 185.742 113.546,183.739 110.122,182.694 108.730 C 179.095 103.934,174.170 101.252,167.759 100.594 C 166.436 100.458,146.753 100.391,108.475 100.391 L 51.172 100.391 51.172 102.148 M249.522 100.606 C 246.312 100.944,243.220 101.904,240.703 103.344 C 238.940 104.353,238.956 104.374,241.281 104.114 C 242.561 103.972,261.244 103.906,300.676 103.906 L 358.203 103.906 358.203 108.984 L 358.203 114.063 362.305 114.063 L 366.406 114.063 366.406 107.227 L 366.406 100.391 308.740 100.417 C 277.024 100.431,250.376 100.516,249.522 100.606 M51.172 120.313 L 51.172 122.070 115.030 122.070 L 178.889 122.070 178.987 122.705 C 179.041 123.054,179.177 123.918,179.289 124.625 C 179.401 125.332,179.492 127.332,179.492 129.069 L 179.492 132.227 183.594 132.227 L 187.695 132.227 187.689 127.588 C 187.685 124.672,187.579 122.187,187.402 120.898 C 187.248 119.771,187.119 118.782,187.116 118.701 C 187.112 118.621,156.523 118.555,119.141 118.555 L 51.172 118.555 51.172 120.313 M230.407 118.994 C 230.350 119.236,230.242 120.027,230.168 120.752 L 230.033 122.070 294.118 122.070 L 358.203 122.070 358.203 127.148 L 358.203 132.227 362.305 132.227 L 366.406 132.227 366.406 125.391 L 366.406 118.555 298.459 118.555 L 230.511 118.555 230.407 118.994 M51.172 138.672 L 51.172 140.430 64.059 140.430 L 76.947 140.430 76.999 145.459 L 77.051 150.488 81.104 150.541 L 85.156 150.594 85.156 143.754 L 85.156 136.914 68.164 136.914 L 51.172 136.914 51.172 138.672 M153.516 138.672 L 153.516 140.430 166.504 140.430 L 179.492 140.430 179.492 145.512 L 179.492 150.594 183.545 150.541 L 187.598 150.488 187.649 143.701 L 187.700 136.914 170.608 136.914 L 153.516 136.914 153.516 138.672 M229.924 138.623 L 229.980 140.332 242.920 140.382 L 255.859 140.432 255.859 145.509 L 255.859 150.586 259.961 150.586 L 264.063 150.586 264.063 143.750 L 264.063 136.914 246.965 136.914 L 229.868 136.914 229.924 138.623 M51.172 156.836 L 51.172 158.594 64.059 158.594 L 76.947 158.594 76.999 163.623 L 77.051 168.652 81.104 168.705 L 85.156 168.758 85.156 161.918 L 85.156 155.078 68.164 155.078 L 51.172 155.078 51.172 156.836 M153.516 156.836 L 153.516 158.594 166.504 158.594 L 179.492 158.594 179.492 163.676 L 179.492 168.758 183.545 168.705 L 187.598 168.652 187.649 161.865 L 187.700 155.078 170.608 155.078 L 153.516 155.078 153.516 156.836 M229.883 156.836 L 229.883 158.594 283.936 158.595 C 343.303 158.596,339.889 158.529,343.614 159.774 C 347.797 161.172,351.449 163.931,353.878 167.529 L 354.702 168.750 359.670 168.750 L 364.639 168.750 364.435 168.213 C 362.348 162.719,356.776 157.639,351.079 156.037 C 347.531 155.039,350.292 155.081,287.939 155.079 L 229.883 155.078 229.883 156.836 M51.172 175.000 L 51.172 176.758 64.063 176.758 L 76.953 176.758 76.953 181.836 L 76.953 186.914 81.055 186.914 L 85.156 186.914 85.156 180.078 L 85.156 173.242 68.164 173.242 L 51.172 173.242 51.172 175.000 M153.516 175.000 L 153.516 176.758 166.504 176.758 L 179.492 176.758 179.492 181.836 L 179.492 186.914 183.594 186.914 L 187.695 186.914 187.695 180.078 L 187.695 173.242 170.605 173.242 L 153.516 173.242 153.516 175.000 M231.836 173.381 C 231.836 173.458,232.197 174.249,232.638 175.139 L 233.440 176.758 295.602 176.758 L 357.765 176.758 357.984 178.231 C 358.105 179.041,358.203 181.326,358.203 183.309 L 358.203 186.914 362.305 186.914 L 366.406 186.914 366.406 181.689 C 366.407 178.805,366.306 175.743,366.182 174.854 L 365.956 173.242 298.896 173.242 C 262.013 173.242,231.836 173.305,231.836 173.381 M51.172 193.164 L 51.172 194.922 64.063 194.922 L 76.953 194.922 76.953 200.000 L 76.953 205.078 81.055 205.078 L 85.156 205.078 85.156 198.242 L 85.156 191.406 68.164 191.406 L 51.172 191.406 51.172 193.164 M153.516 193.163 L 153.516 194.922 166.504 194.922 L 179.492 194.922 179.492 200.000 L 179.492 205.078 183.596 205.078 L 187.700 205.078 187.649 198.291 L 187.598 191.504 170.557 191.454 L 153.516 191.404 153.516 193.163 M332.422 193.164 L 332.422 194.922 345.313 194.922 L 358.203 194.922 358.203 200.000 L 358.203 205.078 362.305 205.078 L 366.406 205.078 366.406 198.242 L 366.406 191.406 349.414 191.406 L 332.422 191.406 332.422 193.164 M51.172 211.328 L 51.172 213.086 64.063 213.086 L 76.953 213.086 76.953 218.164 L 76.953 223.242 81.055 223.242 L 85.156 223.242 85.156 216.406 L 85.156 209.570 68.164 209.570 L 51.172 209.570 51.172 211.328 M153.516 211.326 L 153.516 213.083 166.455 213.133 L 179.395 213.184 179.447 218.213 L 179.499 223.242 183.600 223.242 L 187.700 223.242 187.649 216.455 L 187.598 209.668 170.557 209.618 L 153.516 209.568 153.516 211.326 M332.422 211.328 L 332.422 213.086 345.313 213.086 L 358.203 213.086 358.203 218.164 L 358.203 223.242 362.305 223.242 L 366.406 223.242 366.406 216.406 L 366.406 209.570 349.414 209.570 L 332.422 209.570 332.422 211.328 M51.172 229.688 L 51.172 231.445 115.332 231.445 L 179.492 231.445 179.492 236.523 L 179.492 241.602 183.301 241.602 C 185.396 241.602,187.112 241.536,187.116 241.455 C 187.119 241.375,187.248 240.386,187.402 239.258 C 187.579 237.969,187.685 235.484,187.689 232.568 L 187.695 227.930 119.434 227.930 L 51.172 227.930 51.172 229.688 M229.924 229.639 L 229.980 231.348 294.092 231.397 L 358.203 231.446 358.203 236.524 L 358.203 241.602 362.080 241.602 L 365.956 241.602 366.182 239.990 C 366.306 239.101,366.407 236.039,366.406 233.154 L 366.406 227.930 298.137 227.930 L 229.868 227.930 229.924 229.639 M51.172 247.852 L 51.172 249.609 114.355 249.609 C 149.106 249.609,177.539 249.656,177.539 249.712 C 177.539 250.724,174.456 255.272,172.345 257.374 C 170.351 259.360,170.341 259.344,173.047 258.461 C 177.267 257.083,180.849 254.294,183.448 250.363 C 184.399 248.925,185.742 246.485,185.742 246.197 C 185.742 246.140,155.464 246.094,118.457 246.094 L 51.172 246.094 51.172 247.852 M229.883 247.851 L 229.883 249.609 293.184 249.658 L 356.485 249.707 355.711 251.202 C 354.407 253.723,353.127 255.486,351.230 257.377 C 349.240 259.361,349.224 259.335,351.907 258.468 C 356.988 256.827,361.095 253.140,363.790 247.803 L 364.652 246.094 297.268 246.094 L 229.883 246.094 229.883 247.851 " stroke="none" fill="#fbebac" fill-rule="evenodd"></path><path id="path3" d="M44.981 104.052 C 46.142 104.087,47.988 104.087,49.083 104.052 C 50.178 104.017,49.229 103.989,46.973 103.989 C 44.717 103.989,43.821 104.018,44.981 104.052 M157.766 104.044 C 158.009 104.091,158.360 104.089,158.547 104.040 C 158.734 103.992,158.535 103.953,158.105 103.956 C 157.676 103.958,157.523 103.998,157.766 104.044 M242.727 104.044 C 242.970 104.091,243.321 104.089,243.508 104.040 C 243.695 103.992,243.496 103.953,243.066 103.956 C 242.637 103.958,242.484 103.998,242.727 104.044 M228.516 109.863 C 228.041 110.347,227.697 110.742,227.751 110.742 C 227.804 110.742,228.237 110.347,228.711 109.863 C 229.185 109.380,229.530 108.984,229.476 108.984 C 229.422 108.984,228.990 109.380,228.516 109.863 M76.904 122.217 C 95.623 122.244,126.252 122.244,144.971 122.217 C 163.689 122.189,148.374 122.167,110.938 122.167 C 73.501 122.167,58.186 122.189,76.904 122.217 M256.201 122.217 C 274.919 122.244,305.549 122.244,324.268 122.217 C 342.986 122.189,327.671 122.167,290.234 122.167 C 252.798 122.167,237.483 122.189,256.201 122.217 M179.382 130.566 C 179.382 133.467,179.409 134.681,179.443 133.264 C 179.476 131.847,179.476 129.474,179.443 127.990 C 179.410 126.507,179.382 127.666,179.382 130.566 M221.765 130.566 C 221.765 133.467,221.792 134.681,221.826 133.264 C 221.859 131.847,221.859 129.474,221.826 127.990 C 221.793 126.507,221.765 127.666,221.765 130.566 M179.343 147.118 L 179.297 153.904 162.256 153.955 L 145.215 154.006 162.262 154.054 C 175.803 154.092,179.329 154.051,179.403 153.856 C 179.455 153.721,179.473 150.623,179.443 146.971 L 179.389 140.332 179.343 147.118 M221.773 147.168 L 221.777 154.004 238.867 154.006 L 255.957 154.007 238.919 153.956 L 221.880 153.904 221.825 147.118 L 221.770 140.332 221.773 147.168 M51.416 154.053 C 56.116 154.082,63.806 154.082,68.506 154.053 C 73.206 154.024,69.360 154.000,59.961 154.000 C 50.562 154.000,46.716 154.024,51.416 154.053 M179.343 165.282 L 179.297 172.068 162.256 172.119 L 145.215 172.170 162.262 172.218 C 175.803 172.256,179.329 172.215,179.403 172.020 C 179.455 171.885,179.473 168.787,179.443 165.135 L 179.389 158.496 179.343 165.282 M221.765 163.770 C 221.765 166.670,221.792 167.884,221.826 166.467 C 221.859 165.050,221.859 162.677,221.826 161.193 C 221.793 159.710,221.765 160.869,221.765 163.770 M51.416 172.217 C 56.116 172.246,63.806 172.246,68.506 172.217 C 73.206 172.188,69.360 172.164,59.961 172.164 C 50.562 172.164,46.716 172.188,51.416 172.217 M255.697 172.217 C 274.138 172.244,304.372 172.244,322.885 172.217 C 341.397 172.189,326.309 172.167,289.355 172.167 C 252.402 172.167,237.256 172.189,255.697 172.217 M179.385 183.594 C 179.385 187.407,179.411 188.967,179.443 187.061 C 179.475 185.154,179.475 182.034,179.443 180.127 C 179.411 178.220,179.385 179.780,179.385 183.594 M242.236 190.369 C 242.424 190.418,242.732 190.418,242.920 190.369 C 243.108 190.320,242.954 190.280,242.578 190.280 C 242.202 190.280,242.048 190.320,242.236 190.369 M44.971 195.068 C 46.125 195.102,48.015 195.102,49.170 195.068 C 50.325 195.033,49.380 195.005,47.070 195.005 C 44.761 195.005,43.816 195.033,44.971 195.068 M147.314 195.068 C 148.469 195.102,150.359 195.102,151.514 195.068 C 152.668 195.033,151.724 195.005,149.414 195.005 C 147.104 195.005,146.160 195.033,147.314 195.068 M179.385 201.758 C 179.385 205.571,179.411 207.131,179.443 205.225 C 179.475 203.318,179.475 200.198,179.443 198.291 C 179.411 196.384,179.385 197.944,179.385 201.758 M326.221 195.068 C 327.375 195.102,329.265 195.102,330.420 195.068 C 331.575 195.033,330.630 195.005,328.320 195.005 C 326.011 195.005,325.066 195.033,326.221 195.068 M51.416 213.232 C 56.116 213.262,63.806 213.262,68.506 213.232 C 73.206 213.203,69.360 213.179,59.961 213.179 C 50.562 213.179,46.716 213.203,51.416 213.232 M162.253 213.232 L 179.292 213.283 179.347 220.021 L 179.402 226.758 179.398 219.971 L 179.395 213.184 162.305 213.182 L 145.215 213.180 162.253 213.232 M332.666 213.232 C 337.366 213.262,345.056 213.262,349.756 213.232 C 354.456 213.203,350.610 213.179,341.211 213.179 C 331.812 213.179,327.966 213.203,332.666 213.232 M179.382 236.523 C 179.382 239.370,179.409 240.535,179.443 239.111 C 179.476 237.688,179.476 235.359,179.443 233.936 C 179.409 232.512,179.382 233.677,179.382 236.523 M221.773 238.184 L 221.777 245.020 289.795 245.020 L 357.813 245.020 289.846 244.971 L 221.880 244.921 221.825 238.134 L 221.770 231.348 221.773 238.184 M76.904 245.068 C 95.623 245.096,126.252 245.096,144.971 245.068 C 163.689 245.041,148.374 245.018,110.938 245.018 C 73.501 245.018,58.186 245.041,76.904 245.068 M221.726 256.396 L 221.680 263.281 279.639 263.233 L 337.598 263.184 279.739 263.135 L 221.880 263.085 221.826 256.299 L 221.772 249.512 221.726 256.396 M71.826 263.232 C 87.751 263.260,113.811 263.260,129.736 263.232 C 145.662 263.205,132.632 263.182,100.781 263.182 C 68.931 263.182,55.901 263.205,71.826 263.232 " stroke="none" fill="#abc4dc" fill-rule="evenodd"></path><path id="path4" d="M42.861 110.742 C 42.861 114.556,42.888 116.116,42.920 114.209 C 42.952 112.302,42.952 109.182,42.920 107.275 C 42.888 105.369,42.861 106.929,42.861 110.742 M358.274 115.820 C 358.274 116.841,358.306 117.258,358.347 116.748 C 358.387 116.238,358.387 115.403,358.347 114.893 C 358.306 114.382,358.274 114.800,358.274 115.820 M42.867 128.906 L 42.871 135.840 111.230 135.840 L 179.590 135.841 111.282 135.791 L 42.974 135.742 42.919 128.857 L 42.863 121.973 42.867 128.906 M358.243 133.935 L 358.203 135.742 289.893 135.791 L 221.582 135.840 289.899 135.889 C 346.689 135.929,358.232 135.894,358.315 135.677 C 358.370 135.534,358.385 134.677,358.349 133.773 L 358.283 132.129 358.243 133.935 M42.862 140.480 C 42.811 140.615,42.793 143.757,42.822 147.462 L 42.876 154.199 42.923 147.318 L 42.969 140.437 47.119 140.381 L 51.270 140.324 47.113 140.279 C 43.924 140.245,42.935 140.291,42.862 140.480 M147.314 140.380 C 148.469 140.415,150.359 140.415,151.514 140.380 C 152.668 140.346,151.724 140.317,149.414 140.317 C 147.104 140.317,146.160 140.346,147.314 140.380 M223.671 140.380 C 224.820 140.414,226.753 140.415,227.968 140.380 C 229.182 140.346,228.242 140.318,225.879 140.318 C 223.516 140.317,222.522 140.346,223.671 140.380 M77.024 152.148 C 77.024 153.169,77.056 153.586,77.097 153.076 C 77.137 152.566,77.137 151.731,77.097 151.221 C 77.056 150.710,77.024 151.128,77.024 152.148 M42.861 165.430 C 42.861 169.243,42.888 170.803,42.920 168.896 C 42.952 166.990,42.952 163.870,42.920 161.963 C 42.888 160.056,42.861 161.616,42.861 165.430 M77.024 170.410 C 77.025 171.484,77.058 171.899,77.097 171.331 C 77.137 170.764,77.137 169.885,77.096 169.378 C 77.056 168.872,77.024 169.336,77.024 170.410 M42.861 183.594 C 42.861 187.407,42.888 188.967,42.920 187.061 C 42.952 185.154,42.952 182.034,42.920 180.127 C 42.888 178.220,42.861 179.780,42.861 183.594 M77.024 188.672 C 77.024 189.692,77.056 190.110,77.097 189.600 C 77.137 189.089,77.137 188.254,77.097 187.744 C 77.056 187.234,77.024 187.651,77.024 188.672 M358.274 188.672 C 358.274 189.692,358.306 190.110,358.347 189.600 C 358.387 189.089,358.387 188.254,358.347 187.744 C 358.306 187.234,358.274 187.651,358.274 188.672 M42.861 201.758 C 42.861 205.571,42.888 207.131,42.920 205.225 C 42.952 203.318,42.952 200.198,42.920 198.291 C 42.888 196.384,42.861 197.944,42.861 201.758 M324.111 201.758 C 324.111 205.571,324.138 207.131,324.170 205.225 C 324.202 203.318,324.202 200.198,324.170 198.291 C 324.138 196.384,324.111 197.944,324.111 201.758 M77.024 206.836 C 77.024 207.856,77.056 208.274,77.097 207.764 C 77.137 207.253,77.137 206.418,77.097 205.908 C 77.056 205.398,77.024 205.815,77.024 206.836 M358.274 206.836 C 358.274 207.856,358.306 208.274,358.347 207.764 C 358.387 207.253,358.387 206.418,358.347 205.908 C 358.306 205.398,358.274 205.815,358.274 206.836 M42.867 219.922 L 42.871 226.855 59.961 226.855 L 77.051 226.855 77.063 225.000 L 77.075 223.145 77.007 224.951 L 76.938 226.758 59.956 226.758 L 42.974 226.758 42.919 219.873 L 42.863 212.988 42.867 219.922 M324.117 219.922 L 324.121 226.855 341.211 226.855 L 358.301 226.855 358.313 225.000 L 358.325 223.145 358.257 224.951 L 358.188 226.758 341.206 226.758 L 324.224 226.758 324.169 219.873 L 324.113 212.988 324.117 219.922 M153.872 226.904 C 158.634 226.933,166.368 226.933,171.060 226.904 C 175.751 226.875,171.855 226.851,162.402 226.851 C 152.949 226.851,149.111 226.875,153.872 226.904 M42.862 231.495 C 42.811 231.630,42.793 234.772,42.822 238.478 L 42.876 245.215 42.923 238.334 L 42.969 231.453 47.119 231.396 L 51.270 231.339 47.113 231.295 C 43.924 231.260,42.935 231.307,42.862 231.495 M223.671 231.396 C 224.820 231.430,226.753 231.430,227.968 231.396 C 229.182 231.362,228.242 231.333,225.879 231.333 C 223.516 231.333,222.522 231.361,223.671 231.396 M42.861 256.445 C 42.861 260.259,42.888 261.819,42.920 259.912 C 42.952 258.005,42.952 254.885,42.920 252.979 C 42.888 251.072,42.861 252.632,42.861 256.445 " stroke="none" fill="#cadae9" fill-rule="evenodd"></path></g></svg>